{
  "accessors": [
    {
      "bufferView": 2,
      "componentType": 5126,
      "count": 122,
      "max": [
        29.35938835144043,
        -20.137628555297852,
        0.46343898773193359
      ],
      "min": [
        -8.7186517715454102,
        -42.391166687011719,
        0.3303619921207428
      ],
      "type": "VEC3"
    },
    {
      "bufferView": 2,
      "byteOffset": 1464,
      "componentType": 5126,
      "count": 122,
      "max": [
        1,
        1,
        1
      ],
      "min": [
        -1,
        -1,
        -1
      ],
      "type": "VEC3"
    },
    {
      "bufferView": 3,
      "componentType": 5126,
      "count": 122,
      "max": [
        0.99921947717666626,
        0.24339857697486877,
        1,
        1
      ],
      "min": [
        -1,
        -0.093194983899593353,
        -1,
        -1
      ],
      "type": "VEC4"
    },
    {
      "bufferView": 1,
      "componentType": 5126,
      "count": 122,
      "max": [
        0.96997499465942383,
        0.99000000953674316
      ],
      "min": [
        0.0099999997764825821,
        0.012934999540448189
      ],
      "type": "VEC2"
    },
    {
      "bufferView": 0,
      "componentType": 5125,
      "count": 300,
      "max": [
        121
      ],
      "min": [
        0
      ],
      "type": "SCALAR"
    },
    {
      "bufferView": 2,
      "byteOffset": 2928,
      "componentType": 5126,
      "count": 1312,
      "max": [
        22.425258636474609,
        -23.386598587036133,
        2.2672479152679443
      ],
      "min": [
        4.3487081527709961,
        -41.252445220947266,
        0.46792399883270264
      ],
      "type": "VEC3"
    },
    {
      "bufferView": 2,
      "byteOffset": 18672,
      "componentType": 5126,
      "count": 1312,
      "max": [
        1,
        0.99750602245330811,
        1
      ],
      "min": [
        -1,
        -0.99750548601150513,
        -1
      ],
      "type": "VEC3"
    },
    {
      "bufferView": 3,
      "byteOffset": 1952,
      "componentType": 5126,
      "count": 1312,
      "max": [
        0.98371005058288574,
        1,
        0.9975048303604126,
        1
      ],
      "min": [
        -0.98417705297470093,
        -1,
        -0.99750524759292603,
        1
      ],
      "type": "VEC4"
    },
    {
      "bufferView": 1,
      "byteOffset": 976,
      "componentType": 5126,
      "count": 1312,
      "max": [
        0.99000000953674316,
        0.99000000953674316
      ],
      "min": [
        0.0097859995439648628,
        0.63748300075531006
      ],
      "type": "VEC2"
    },
    {
      "bufferView": 0,
      "byteOffset": 1200,
      "componentType": 5125,
      "count": 4224,
      "max": [
        1311
      ],
      "min": [
        0
      ],
      "type": "SCALAR"
    },
    {
      "bufferView": 2,
      "byteOffset": 34416,
      "componentType": 5126,
      "count": 2208,
      "max": [
        7.0550379753112793,
        -13.422451019287109,
        3.5941569805145264
      ],
      "min": [
        -13.560901641845703,
        -39.026924133300781,
        0.32814601063728333
      ],
      "type": "VEC3"
    },
    {
      "bufferView": 2,
      "byteOffset": 60912,
      "componentType": 5126,
      "count": 2208,
      "max": [
        0.99998009204864502,
        0.99998009204864502,
        1
      ],
      "min": [
        -0.99998009204864502,
        -0.99998009204864502,
        -1
      ],
      "type": "VEC3"
    },
    {
      "bufferView": 3,
      "byteOffset": 22944,
      "componentType": 5126,
      "count": 2208,
      "max": [
        1,
        0.99999988079071045,
        1,
        1
      ],
      "min": [
        -0.60926580429077148,
        -0.93382436037063599,
        -1,
        1
      ],
      "type": "VEC4"
    },
    {
      "bufferView": 1,
      "byteOffset": 11472,
      "componentType": 5126,
      "count": 2208,
      "max": [
        0.96164298057556152,
        0.9364820122718811
      ],
      "min": [
        0.021453000605106354,
        0.13239400088787079
      ],
      "type": "VEC2"
    },
    {
      "bufferView": 0,
      "byteOffset": 18096,
      "componentType": 5125,
      "count": 6348,
      "max": [
        2207
      ],
      "min": [
        0
      ],
      "type": "SCALAR"
    },
    {
      "bufferView": 2,
      "byteOffset": 87408,
      "componentType": 5126,
      "count": 168,
      "max": [
        29.366968154907227,
        -20.142261505126953,
        0.46343898773193359
      ],
      "min": [
        -8.7186517715454102,
        -42.376846313476562,
        0.3303619921207428
      ],
      "type": "VEC3"
    },
    {
      "bufferView": 2,
      "byteOffset": 89424,
      "componentType": 5126,
      "count": 168,
      "max": [
        1,
        1,
        0
      ],
      "min": [
        -1,
        -1,
        -1.1000000085914508e-05
      ],
      "type": "VEC3"
    },
    {
      "bufferView": 1,
      "byteOffset": 29136,
      "componentType": 5126,
      "count": 168,
      "max": [
        0.96997499465942383,
        0.74265402555465698
      ],
      "min": [
        0.84690201282501221,
        0.024411000311374664
      ],
      "type": "VEC2"
    },
    {
      "bufferView": 0,
      "byteOffset": 43488,
      "componentType": 5125,
      "count": 252,
      "max": [
        167
      ],
      "min": [
        0
      ],
      "type": "SCALAR"
    },
    {
      "bufferView": 2,
      "byteOffset": 91440,
      "componentType": 5126,
      "count": 1312,
      "max": [
        12.226532936096191,
        -23.198736190795898,
        2.2672479152679443
      ],
      "min": [
        -4.6588058471679688,
        -41.477550506591797,
        0.46568000316619873
      ],
      "type": "VEC3"
    },
    {
      "bufferView": 2,
      "byteOffset": 107184,
      "componentType": 5126,
      "count": 1312,
      "max": [
        0.99679601192474365,
        0.99973374605178833,
        1
      ],
      "min": [
        -0.9982067346572876,
        -0.99998611211776733,
        -1
      ],
      "type": "VEC3"
    },
    {
      "bufferView": 3,
      "byteOffset": 58272,
      "componentType": 5126,
      "count": 1312,
      "max": [
        0.99998950958251953,
        0.99679535627365112,
        0.9975048303604126,
        1
      ],
      "min": [
        -0.99973291158676147,
        -0.9981987476348877,
        -0.99750518798828125,
        1
      ],
      "type": "VEC4"
    },
    {
      "bufferView": 1,
      "byteOffset": 30480,
      "componentType": 5126,
      "count": 1312,
      "max": [
        0.99000000953674316,
        0.45115199685096741
      ],
      "min": [
        0.0097859995439648628,
        0.098635002970695496
      ],
      "type": "VEC2"
    },
    {
      "bufferView": 0,
      "byteOffset": 44496,
      "componentType": 5125,
      "count": 4224,
      "max": [
        1311
      ],
      "min": [
        0
      ],
      "type": "SCALAR"
    }
  ],
  "asset": {
    "extras": {
      "author": "tasha.kosaykina (https://sketchfab.com/tasha.kosaykina)",
      "license": "CC-BY-4.0 (http://creativecommons.org/licenses/by/4.0/)",
      "source": "https://sketchfab.com/3d-models/board-game-30487c1bdc4f43fb97126d546591d0aa",
      "title": "Board Game"
    },
    "generator": "Sketchfab-9.90.0",
    "version": "2.0"
  },
  "bufferViews": [
    {
      "buffer": 0,
      "byteLength": 61392,
      "byteOffset": 0,
      "name": "floatBufferViews",
      "target": 34963
    },
    {
      "buffer": 0,
      "byteLength": 40976,
      "byteOffset": 61392,
      "byteStride": 8,
      "name": "floatBufferViews",
      "target": 34962
    },
    {
      "buffer": 0,
      "byteLength": 122928,
      "byteOffset": 102368,
      "byteStride": 12,
      "name": "floatBufferViews",
      "target": 34962
    },
    {
      "buffer": 0,
      "byteLength": 79264,
      "byteOffset": 225296,
      "byteStride": 16,
      "name": "floatBufferViews",
      "target": 34962
    }
  ],
  "buffers": [
    {
      "byteLength": 304560,
      "uri": "scene.bin"
    }
  ],
  "images": [
    {
      "uri": "textures/aiStandardSurface3SG_baseColor.png"
    },
    {
      "uri": "textures/aiStandardSurface3SG_metallicRoughness.png"
    },
    {
      "uri": "textures/aiStandardSurface3SG_normal.png"
    },
    {
      "uri": "textures/blue_initialShadingGroup_baseColor.png"
    },
    {
      "uri": "textures/blue_initialShadingGroup_metallicRoughness.png"
    },
    {
      "uri": "textures/blue_initialShadingGroup_normal.png"
    },
    {
      "uri": "textures/initialShadingGroup_baseColor.png"
    },
    {
      "uri": "textures/initialShadingGroup_metallicRoughness.png"
    },
    {
      "uri": "textures/initialShadingGroup_normal.png"
    },
    {
      "uri": "textures/lambert3SG_baseColor.png"
    },
    {
      "uri": "textures/lambert3SG_metallicRoughness.png"
    },
    {
      "uri": "textures/lambert3SG_normal.png"
    }
  ],
  "materials": [
    {
      "alphaMode": "BLEND",
      "doubleSided": true,
      "name": "aiStandardSurface3SG",
      "normalTexture": {
        "index": 2,
        "scale": 1,
        "texCoord": 0
      },
      "occlusionTexture": {
        "index": 1,
        "strength": 1,
        "texCoord": 0
      },
      "pbrMetallicRoughness": {
        "baseColorFactor": [
          1,
          1,
          1,
          1
        ],
        "baseColorTexture": {
          "index": 0,
          "texCoord": 0
        },
        "metallicFactor": 0,
        "metallicRoughnessTexture": {
          "index": 1,
          "texCoord": 0
        },
        "roughnessFactor": 1
      }
    },
    {
      "doubleSided": true,
      "name": "blue_initialShadingGroup",
      "normalTexture": {
        "index": 5,
        "scale": 1,
        "texCoord": 0
      },
      "occlusionTexture": {
        "index": 4,
        "strength": 1,
        "texCoord": 0
      },
      "pbrMetallicRoughness": {
        "baseColorFactor": [
          0.56716615289203443,
          0.56716615289203443,
          0.56716615289203443,
          1
        ],
        "baseColorTexture": {
          "index": 3,
          "texCoord": 0
        },
        "metallicFactor": 0,
        "metallicRoughnessTexture": {
          "index": 4,
          "texCoord": 0
        },
        "roughnessFactor": 1
      }
    },
    {
      "doubleSided": true,
      "name": "initialShadingGroup",
      "normalTexture": {
        "index": 8,
        "scale": 1,
        "texCoord": 0
      },
      "occlusionTexture": {
        "index": 7,
        "strength": 1,
        "texCoord": 0
      },
      "pbrMetallicRoughness": {
        "baseColorFactor": [
          1,
          1,
          1,
          1
        ],
        "baseColorTexture": {
          "index": 6,
          "texCoord": 0
        },
        "metallicFactor": 0,
        "metallicRoughnessTexture": {
          "index": 7,
          "texCoord": 0
        },
        "roughnessFactor": 1
      }
    },
    {
      "doubleSided": true,
      "name": "lambert2SG",
      "pbrMetallicRoughness": {
        "baseColorFactor": [
          1,
          1,
          1,
          1
        ],
        "metallicFactor": 0,
        "roughnessFactor": 0.59999999999999998
      }
    },
    {
      "doubleSided": true,
      "name": "lambert3SG",
      "normalTexture": {
        "index": 11,
        "scale": 1,
        "texCoord": 0
      },
      "occlusionTexture": {
        "index": 10,
        "strength": 1,
        "texCoord": 0
      },
      "pbrMetallicRoughness": {
        "baseColorFactor": [
          1,
          1,
          1,
          1
        ],
        "baseColorTexture": {
          "index": 9,
          "texCoord": 0
        },
        "metallicFactor": 0,
        "metallicRoughnessTexture": {
          "index": 10,
          "texCoord": 0
        },
        "roughnessFactor": 1
      }
    }
  ],
  "meshes": [
    {
      "primitives": [
        {
          "attributes": {
            "NORMAL": 1,
            "POSITION": 0,
            "TANGENT": 2,
            "TEXCOORD_0": 3
          },
          "indices": 4,
          "material": 0,
          "mode": 4
        }
      ]
    },
    {
      "primitives": [
        {
          "attributes": {
            "NORMAL": 6,
            "POSITION": 5,
            "TANGENT": 7,
            "TEXCOORD_0": 8
          },
          "indices": 9,
          "material": 1,
          "mode": 4
        }
      ]
    },
    {
      "primitives": [
        {
          "attributes": {
            "NORMAL": 11,
            "POSITION": 10,
            "TANGENT": 12,
            "TEXCOORD_0": 13
          },
          "indices": 14,
          "material": 2,
          "mode": 4
        }
      ]
    },
    {
      "primitives": [
        {
          "attributes": {
            "NORMAL": 16,
            "POSITION": 15,
            "TEXCOORD_0": 17
          },
          "indices": 18,
          "material": 3,
          "mode": 4
        }
      ]
    },
    {
      "primitives": [
        {
          "attributes": {
            "NORMAL": 20,
            "POSITION": 19,
            "TANGENT": 21,
            "TEXCOORD_0": 22
          },
          "indices": 23,
          "material": 4,
          "mode": 4
        }
      ]
    }
  ],
  "nodes": [
    {
      "children": [
        1
      ],
      "name": "RootNode (gltf orientation matrix)",
      "rotation": [
        -0.70710678118654746,
        -0,
        -0,
        0.70710678118654757
      ]
    },
    {
      "children": [
        2
      ],
      "name": "RootNode (model correction matrix)"
    },
    {
      "children": [
        3,
        4,
        5,
        6,
        7
      ],
      "name": "board game_SCENE.obj.cleaner.materialmerger.gles"
    },
    {
      "mesh": 0,
      "name": ""
    },
    {
      "mesh": 1,
      "name": ""
    },
    {
      "mesh": 2,
      "name": ""
    },
    {
      "mesh": 3,
      "name": ""
    },
    {
      "mesh": 4,
      "name": ""
    }
  ],
  "samplers": [
    {
      "magFilter": 9729,
      "minFilter": 9987,
      "wrapS": 10497,
      "wrapT": 10497
    }
  ],
  "scene": 0,
  "scenes": [
    {
      "name": "OSG_Scene",
      "nodes": [
        0
      ]
    }
  ],
  "textures": [
    {
      "sampler": 0,
      "source": 0
    },
    {
      "sampler": 0,
      "source": 1
    },
    {
      "sampler": 0,
      "source": 2
    },
    {
      "sampler": 0,
      "source": 3
    },
    {
      "sampler": 0,
      "source": 4
    },
    {
      "sampler": 0,
      "source": 5
    },
    {
      "sampler": 0,
      "source": 6
    },
    {
      "sampler": 0,
      "source": 7
    },
    {
      "sampler": 0,
      "source": 8
    },
    {
      "sampler": 0,
      "source": 9
    },
    {
      "sampler": 0,
      "source": 10
    },
    {
      "sampler": 0,
      "source": 11
    }
  ]
}

